<?xml version="1.0" standalone="no"?><!DOCTYPE svg PUBLIC "-//W3C//DTD SVG 1.1//EN" "http://www.w3.org/Graphics/SVG/1.1/DTD/svg11.dtd"><svg t="1679884301401" class="icon" viewBox="0 0 1024 1024" version="1.1" xmlns="http://www.w3.org/2000/svg" p-id="3483" xmlns:xlink="http://www.w3.org/1999/xlink" width="200" height="200"><path d="M641.1 882.5h47.4V721.6h48.1v160.8h56.2V686.2H654.1v-44.5h294.7v44.5H841.9v71.1h95.5v44.2h-95.5v80.9h117.6V927H641.1v-44.5z" p-id="3484" fill="#8a8a8a"></path><path d="M575.3 896h-415c-17.6 0-31.9-14.3-31.9-32V160c0-17.7 14.3-32 31.9-32h383.1v160c0 35.3 28.6 64 63.8 64h159.6v192c0 17.7 14.3 32 31.9 32 17.6 0 31.9-14.3 31.9-32V270.2c0-8.5-3.3-16.6-9.3-22.6L648.5 73.4c-6-6-14.1-9.4-22.6-9.4H128.4c-35.3 0-63.8 28.7-63.8 64v768c0 35.3 28.6 64 63.8 64h446.9c17.6 0 31.9-14.3 31.9-32s-14.3-32-31.9-32zM639.1 288c-17.6 0-31.9-14.3-31.9-32V128l159.6 160H639.1z" p-id="3485" fill="#8a8a8a"></path><path d="M543.4 672H223.1c-17.6 0-31.9 14.3-31.9 32s14.3 32 31.9 32h320.2c17.6 0 31.9-14.3 31.9-32 0.1-17.7-14.2-32-31.8-32zM606.2 480H223.1c-17.6 0-31.9 14.3-31.9 32s14.3 32 31.9 32h383.1c17.6 0 31.9-14.3 31.9-32s-14.3-32-31.9-32zM223.1 352h191.5c17.6 0 31.9-14.3 31.9-32s-14.3-32-31.9-32H223.1c-17.6 0-31.9 14.3-31.9 32s14.3 32 31.9 32z" p-id="3486" fill="#8a8a8a"></path></svg>